<?xml version="1.0" encoding="UTF-8"?>
<svg xmlns="http://www.w3.org/2000/svg" version="1.1" viewBox="0 0 788.2 283.7">
  <defs>
    <style>
      .cls-1 {
        fill: #59bcac;
      }

      .cls-2 {
        fill: #999;
      }
    </style>
  </defs>
  <!-- Generator: Adobe Illustrator 28.7.2, SVG Export Plug-In . SVG Version: 1.2.0 Build 154)  -->
  <g>
    <g id="logo">
      <g>
        <path class="cls-2" d="M262,130.4h-26.8V24.7h-38.8V2h104.5v22.7h-38.8v105.7h0Z"/>
        <path class="cls-2" d="M343.6,132.9c-25.6,0-48.7-15.7-48.7-50.1s23.1-50.1,48.7-50.1,48.7,15.8,48.7,50.1-23.1,50.1-48.7,50.1ZM343.6,53.9c-19.3,0-22.9,16.8-22.9,29s3.6,29,22.9,29,22.9-16.8,22.9-29-3.6-29-22.9-29Z"/>
        <path class="cls-2" d="M434.1,47.6h.4c3.9-6.1,11.5-14.8,27.5-14.8s39.5,16.1,39.5,49-11.8,51.2-40.1,51.2-21.5-3.8-27.5-14.5h-.4v12h-24.5V2h25v45.6h0ZM454.5,54.4c-17.2,0-21.5,15.4-21.5,30.6s6.3,27.4,22.2,27.4,20.6-17.5,20.6-28.8-5.4-29.2-21.3-29.2h0Z"/>
        <path class="cls-2" d="M544.8,24h-25V.7h25v23.3ZM544.8,35.2v95.2h-25V35.2h25Z"/>
        <path class="cls-2" d="M645.9,111.8c0,11.3,2.5,13.8,5.5,14.8v3.8h-27c-1.4-4.5-1.8-5.9-2.3-11.3-5.7,5.9-13.8,13.8-30.8,13.8s-29-8.1-29-27.7,11.8-28.1,27.7-30.4l22.5-3.4c3.9-.5,8.8-2.2,8.8-7.5,0-10.6-10-11.1-16.5-11.1-12.5,0-14.7,7.7-15.4,13.2h-24.2c2.9-29.2,23.1-33.3,42.6-33.3s37.9,4.1,37.9,27.5v51.5h0ZM621.4,84.1c-2.5,2-6.6,3.6-17,5.2-9.3,1.6-17,3.9-17,14.3s6.8,11.4,11.6,11.4c11.1,0,22.4-7.2,22.4-18.8v-12.2h0Z"/>
        <path class="cls-2" d="M722.2,64.2c-1.1-6.1-3.2-12.5-16.8-12.5s-15.4,5.2-15.4,9.3c0,15,59.6,4.1,59.6,39.2s-26.8,32.7-41.7,32.7c-21.7,0-45.1-7.5-45.8-32.9h25.8c0,8.1,5,14,20.8,14s15.9-6.3,15.9-9.8c0-15.9-59-3.9-59-39.5s8.8-31.8,38.5-31.8,40.8,4.7,42.8,31.5h-24.5,0Z"/>
        <path class="cls-2" d="M207.4,152h56.7c43.3,0,52.2,36.9,52.2,61.2s-10.9,67.3-53.3,67.3h-55.6v-128.5h0ZM233.7,258.2h26.1c21.8,0,29.2-22,29.2-43.1,0-37.9-18.1-41-29.5-41h-25.8v84.1h0Z"/>
        <path class="cls-2" d="M334.4,185.2h24v16.5h.4c5.2-9.7,10.9-19,26.1-19s3.2.2,4.8.4v25.4c-2.1-.4-4.8-.4-7.2-.4-19.5,0-23.1,12.2-23.1,22.7v49.6h-25v-95.2h0Z"/>
        <path class="cls-2" d="M482.4,252.5c-6.6,22.9-25.6,30.4-41.9,30.4-26.8,0-47.4-12.9-47.4-52.1s3.9-48.1,45.6-48.1,44.7,8.9,44.7,52.4v4.5h-65.3c.7,7.2,2.1,23.3,22.4,23.3s14.1-3.6,16.1-10.4h25.8ZM457.7,223.4c-1.4-15.4-11.3-20-19.3-20-11.8,0-18.1,7.5-19.5,20h38.8,0Z"/>
        <path class="cls-2" d="M525.9,174h-25v-23.3h25v23.3ZM525.9,185.2v95.2h-25v-95.2h25Z"/>
        <path class="cls-2" d="M578.8,280.4h-25v-77.3h-13.8v-17.9h13.8v-7.7c0-19.7,10.7-27.2,27.9-27.2s10.7.2,12.9.4v20.2h-7c-8.6,0-8.8,2.7-8.8,10.6v3.8h16.3v17.9h-16.3v77.3h0Z"/>
        <path class="cls-2" d="M635.2,280.4h-25v-128.5h25v69.4l31.5-36.1h30.8l-33.6,36.9,34.5,58.3h-30.1l-22.7-40.8-10.4,10.7v30.1h0Z"/>
        <path class="cls-2" d="M787.1,252.5c-6.6,22.9-25.6,30.4-41.9,30.4-26.8,0-47.4-12.9-47.4-52.1s3.9-48.1,45.6-48.1,44.7,8.9,44.7,52.4v4.5h-65.3c.7,7.2,2.2,23.3,22.4,23.3s14.1-3.6,16.1-10.4h25.8ZM762.4,223.4c-1.4-15.4-11.3-20-19.3-20-11.8,0-18.1,7.5-19.5,20h38.8,0Z"/>
      </g>
      <g>
        <path class="cls-1" d="M145,159.9v64c0,48.9-41.6,59-69.1,59S0,270.6,0,222.7v-62.8h145ZM25,189.6v29.5c0,24.6,24.8,32.9,48.7,32.9,42.8,0,46.2-20.4,46.2-33.3v-29.1H25Z"/>
        <path class="cls-1" d="M86.2,139.5h-32.4V33.8H0V.7h145v33.1h-58.8s0,105.7,0,105.7Z"/>
      </g>
    </g>
  </g>
</svg>